<?xml version="1.0" encoding="utf-8"?>
<!-- Generator: Adobe Illustrator 27.8.1, SVG Export Plug-In . SVG Version: 6.00 Build 0)  -->
<svg version="1.1" id="Laag_1" xmlns="http://www.w3.org/2000/svg" xmlns:xlink="http://www.w3.org/1999/xlink" x="0px" y="0px"
	 viewBox="0 0 65.2 60.8" style="enable-background:new 0 0 65.2 60.8;" xml:space="preserve">
<style type="text/css">
	.st0{fill:#3C3C3B;}
</style>
<g>
	<path class="st0" d="M37.9,20.6c-1.6,0-3,1.3-3,3c0,1.6,1.3,3,3,3c1.6,0,3-1.3,3-3C40.8,21.9,39.5,20.6,37.9,20.6 M37.9,25
		c-0.8,0-1.5-0.7-1.5-1.5c0-0.8,0.7-1.5,1.5-1.5s1.5,0.7,1.5,1.5C39.4,24.3,38.7,25,37.9,25"/>
	<path class="st0" d="M51,31.2l-4.8-6.4l-0.9-3c0-0.1-0.1-0.1-0.1-0.2v-2.5c0-1.6-1.3-3-3-3H18.7c-1.6,0-3,1.3-3,3v8.9
		c0,1.6,1.3,3,3,3h0.5l2.5,8.3c0.1,0.3,0.4,0.5,0.7,0.5c0.1,0,0.1,0,0.2,0l4.3-1.3l5.2,6.9c0.1,0.2,0.4,0.3,0.6,0.3
		c0.2,0,0.3,0,0.4-0.2l17.7-13.3C51.2,32,51.3,31.5,51,31.2 M18.7,19.1h23.6v8.9H18.7V19.1z M20.8,30.9h21.6c1.6,0,3-1.3,3-3v-1.2
		l1.3,4.4l-23.7,7L20.8,30.9z M32.9,43.9L28.4,38l19.2-5.7c0.2-0.1,0.3-0.2,0.4-0.4c0.1-0.2,0.1-0.4,0.1-0.6l-0.8-2.5l2,2.6
		L32.9,43.9z"/>
</g>
</svg>
