<?xml version="1.0" encoding="iso-8859-1"?>
<!-- Generator: Adobe Illustrator 23.0.5, SVG Export Plug-In . SVG Version: 6.00 Build 0)  -->
<svg version="1.1" xmlns="http://www.w3.org/2000/svg" xmlns:xlink="http://www.w3.org/1999/xlink" x="0px" y="0px"
	 viewBox="0 0 492 492" style="enable-background:new 0 0 492 492;" xml:space="preserve">
<g id="Master_Layer_2">
</g>
<g id="Layer_1">
	<g>
		<g>
			<g>
				<g>
					<path style="fill-rule:evenodd;clip-rule:evenodd;fill:#212121;" d="M426.718,325.905H369.67v-11.712h47.784
						c1.248-7.368,1.944-18.696,1.08-31.128c-1.128-15.984-4.464-28.992-9.384-36.624l-0.192-0.288
						c-2.04-3.144-4.344-6.72-9.96-8.808c-11.136-4.152-16.008-5.064-23.376-6.456c-6.912-1.296-15.528-2.904-32.352-7.704
						c-5.736-1.632-10.704-4.56-14.688-8.736c-0.048-0.048-0.096-0.096-0.144-0.144c-10.32-10.32-13.8-18.696-20.136-33.864
						c-1.104-2.664-2.256-5.424-3.576-8.52c-1.704-3.96-2.88-6.912-3.84-9.288c-1.248-3.096-1.992-4.968-2.64-5.976
						c-0.384-0.6-0.816-1.056-2.616-2.376c-3.504-2.592-12.984-3.96-20.544-3.96h-5.544c-41.976,0-169.68-0.048-178.488,0.984
						c-4.584,0.528-6.288,1.248-9.696,5.208c-2.592,3.024-3.96,6.696-5.136,10.176c-0.048,0.12-0.072,0.24-0.144,0.384
						c-0.624,1.8-2.568,7.296-2.4,20.952c0.072,5.976,0.12,11.208,0,14.712v97.032v1.992c0,0.96,0,1.176,0,1.32
						c0.024,0.456,0.216,4.56,3.336,7.848c1.176,1.248,2.616,2.208,4.272,2.88c0.216,0.096,0.552,0.168,0.672,0.216l0.144,0.024
						c0.192,0.048,0.36,0.072,0.552,0.096h27.6v11.712h-28.32l-0.336-0.048c-0.696-0.072-1.392-0.192-2.088-0.36
						c-0.36-0.072-1.464-0.336-2.616-0.792c-3.264-1.32-6.096-3.24-8.424-5.712c-5.784-6.144-6.432-13.416-6.504-15.504
						c0-0.336,0-0.552,0-1.704v-1.968v-97.32c0.12-3.264,0.072-8.4,0-14.28c-0.192-15.72,2.256-22.68,3.048-24.96
						c0.024-0.096,0.072-0.192,0.096-0.264c1.488-4.368,3.384-9.432,7.32-14.04c5.784-6.744,10.512-8.448,17.232-9.24
						c8.424-0.984,100.536-1.08,179.832-1.056h5.544c4.488,0,19.704,0.456,27.528,6.288c5.352,3.96,6.144,5.952,9.12,13.368
						c0.936,2.328,2.088,5.208,3.744,9.048c1.344,3.12,2.544,6.048,3.624,8.616c5.952,14.256,8.928,21.432,17.616,30.12
						c0.072,0.072,0.168,0.168,0.288,0.288c0.96,0.984,3.84,3.984,9.48,5.592c16.32,4.632,24.624,6.192,31.296,7.44
						c7.68,1.44,13.224,2.472,25.296,6.984c9.264,3.456,13.296,9.696,15.696,13.44l0.192,0.288
						c7.68,11.88,10.344,29.472,11.232,42.168c1.032,14.592,0.096,30-2.352,39.312L426.718,325.905z"/>
				</g>
				<g>
					<rect x="174.311" y="314.217" style="fill-rule:evenodd;clip-rule:evenodd;fill:#212121;" width="131.184" height="11.712"/>
				</g>
				<g>
					<path style="fill-rule:evenodd;clip-rule:evenodd;fill:#212121;" d="M142.294,354.873c-20.976,0-38.016-17.064-38.016-38.016
						c0-20.976,17.064-38.016,38.016-38.016s38.016,17.04,38.016,37.992C180.31,337.809,163.27,354.873,142.294,354.873
						L142.294,354.873z M142.294,290.53c-14.52,0-26.328,11.808-26.328,26.328s11.808,26.328,26.328,26.328
						s26.328-11.808,26.328-26.328S156.814,290.53,142.294,290.53z"/>
				</g>
				<g>
					<path style="fill-rule:evenodd;clip-rule:evenodd;fill:#212121;" d="M337.486,354.873c-20.976,0-38.016-17.064-38.016-38.016
						c0-20.976,17.064-38.016,38.016-38.016c20.976,0,38.016,17.064,38.016,38.016C375.526,337.809,358.462,354.873,337.486,354.873
						L337.486,354.873z M337.486,290.53c-14.52,0-26.328,11.808-26.328,26.328s11.808,26.328,26.328,26.328
						s26.328-11.808,26.328-26.328S352.006,290.53,337.486,290.53z"/>
				</g>
				<g>
					<path style="fill-rule:evenodd;clip-rule:evenodd;fill:#212121;" d="M420.958,282.873c-0.744-0.168-1.992-0.384-3.432-0.624
						c-8.16-1.368-21.816-3.672-29.544-12.696c-8.76-10.2-8.616-25.752-8.52-37.104c0-1.08,0.024-2.136,0.024-3.12l11.712,0
						c0,1.008,0,2.088-0.024,3.216c-0.096,9.504-0.192,22.512,5.688,29.376c4.992,5.808,16.464,7.728,22.608,8.76
						c1.632,0.264,3.048,0.504,4.176,0.792L420.958,282.873z"/>
				</g>
				<g>
					<rect x="67.847" y="196.041" style="fill-rule:evenodd;clip-rule:evenodd;fill:#212121;" width="254.112" height="11.712"/>
				</g>
				<g>
					<rect x="122.446" y="144.849" style="fill-rule:evenodd;clip-rule:evenodd;fill:#212121;" width="11.712" height="57.048"/>
				</g>
				<g>
					<rect x="220.99" y="144.849" style="fill-rule:evenodd;clip-rule:evenodd;fill:#212121;" width="11.712" height="57.048"/>
				</g>
				<g>
					<path style="fill-rule:evenodd;clip-rule:evenodd;fill:#212121;" d="M89.615,325.905c-3.24,0-5.856-2.616-5.856-5.856v-49.296
						H67.846c-3.24,0-5.856-2.616-5.856-5.856c0-3.24,2.616-5.856,5.856-5.856h21.768c3.24,0,5.856,2.616,5.856,5.856v55.152
						C95.47,323.289,92.854,325.905,89.615,325.905z"/>
				</g>
				<g>
					<g>
						<path style="fill-rule:evenodd;clip-rule:evenodd;fill:#212121;" d="M226.846,298.33c-3.24,0-5.856-2.616-5.856-5.856
							l0-60.192c0-3.24,2.616-5.856,5.856-5.856c3.24,0,5.856,2.616,5.856,5.856v60.216
							C232.702,295.714,230.062,298.33,226.846,298.33z"/>
					</g>
					<g>
						<path style="fill-rule:evenodd;clip-rule:evenodd;fill:#212121;" d="M256.942,268.234h-60.216
							c-3.24,0-5.856-2.616-5.856-5.856s2.616-5.856,5.856-5.856h60.216c3.24,0,5.856,2.616,5.856,5.856
							S260.182,268.234,256.942,268.234z"/>
					</g>
				</g>
			</g>
		</g>
	</g>
</g>
</svg>
