<?xml version="1.0" encoding="utf-8"?>
<!-- Generator: Adobe Illustrator 27.8.1, SVG Export Plug-In . SVG Version: 6.00 Build 0)  -->
<svg version="1.1" id="Laag_1" xmlns="http://www.w3.org/2000/svg" xmlns:xlink="http://www.w3.org/1999/xlink" x="0px" y="0px"
	 viewBox="0 0 65.2 60.8" style="enable-background:new 0 0 65.2 60.8;" xml:space="preserve">
<style type="text/css">
	.st0{fill:#3C3C3B;}
</style>
<path class="st0" d="M49.1,23.4c-0.4-0.2-0.8-0.2-1.2,0l-6.3,4.1v-3.2c0-1.9-1.5-3.4-3.4-3.4H20.7c-1.9,0-3.4,1.5-3.4,3.4v13.1
	c0,1.9,1.5,3.4,3.4,3.4h17.6c1.9,0,3.4-1.5,3.4-3.4v-3.2l6.3,4.1c0.2,0.1,0.4,0.2,0.6,0.2c0.2,0,0.4,0,0.5-0.1
	c0.4-0.2,0.6-0.6,0.6-1V24.4C49.7,24,49.5,23.6,49.1,23.4z M39,37.4c0,0.4-0.3,0.7-0.7,0.7H20.7c-0.4,0-0.7-0.3-0.7-0.7V24.4
	c0-0.4,0.3-0.7,0.7-0.7h17.6c0.4,0,0.7,0.3,0.7,0.7V37.4z M47.4,35.2l-5.7-3.8v-1.2l5.7-3.8V35.2z"/>
</svg>
