<?xml version="1.0" encoding="utf-8"?>
<!-- Generator: Adobe Illustrator 27.7.0, SVG Export Plug-In . SVG Version: 6.00 Build 0)  -->
<svg version="1.1" id="Laag_1" xmlns="http://www.w3.org/2000/svg" xmlns:xlink="http://www.w3.org/1999/xlink" x="0px" y="0px"
	 viewBox="0 0 700.5 132" style="enable-background:new 0 0 700.5 132;" xml:space="preserve">
<style type="text/css">
	.st0{fill:#999999;}
	.st1{fill:#666666;}
	.st2{fill:#FFD900;}
</style>
<g>
	<polygon class="st0" points="8.7,8 51.9,123 76.4,123 33.2,8 	"/>
	<polygon class="st1" points="119.5,8 76.3,123 51.8,123 95,8 	"/>
	<rect x="252.2" y="8" class="st0" width="22.9" height="115"/>
	<rect x="135.4" y="54.1" class="st1" width="97.2" height="22.8"/>
	<rect x="135.4" y="8" class="st1" width="97.2" height="22.8"/>
	<rect x="135.4" y="100.2" class="st1" width="97.2" height="22.8"/>
	<rect x="366.5" y="54.1" class="st1" width="97.2" height="22.8"/>
	<rect x="366.5" y="8" class="st1" width="97.2" height="22.8"/>
	<rect x="520.4" y="29.9" class="st0" width="22.9" height="93.2"/>
	<rect x="366.5" y="100.2" class="st1" width="97.2" height="22.8"/>
	<rect x="324" y="8" class="st0" width="22.9" height="115"/>
	<polygon class="st1" points="252.2,8 322.4,123 346.9,123 276.7,8 	"/>
	<rect x="483.3" y="8" class="st1" width="97.2" height="22.8"/>
	<polygon class="st2" points="691.4,123 648.2,8 623.7,8 667,123 	"/>
	<polygon class="st1" points="580.6,123 623.8,8 648.3,8 605.1,123 	"/>
</g>
</svg>
